<?xml version="1.0" encoding="UTF-8" standalone="no"?>
<!-- Created with Inkscape (http://www.inkscape.org/) -->

<svg
   xmlns:dc="http://purl.org/dc/elements/1.1/"
   xmlns:cc="http://creativecommons.org/ns#"
   xmlns:rdf="http://www.w3.org/1999/02/22-rdf-syntax-ns#"
   xmlns:svg="http://www.w3.org/2000/svg"
   xmlns="http://www.w3.org/2000/svg"
   xmlns:sodipodi="http://sodipodi.sourceforge.net/DTD/sodipodi-0.dtd"
   xmlns:inkscape="http://www.inkscape.org/namespaces/inkscape"
   width="959"
   height="1024"
   id="svg2"
   version="1.1"
   inkscape:version="0.48.4 r9939"
   sodipodi:docname="disegno.svg">
  <defs
     id="defs4" />
  <sodipodi:namedview
     id="base"
     pagecolor="#ffffff"
     bordercolor="#666666"
     borderopacity="1.0"
     inkscape:pageopacity="0.0"
     inkscape:pageshadow="2"
     inkscape:zoom="0.44401334"
     inkscape:cx="144.44285"
     inkscape:cy="658.07706"
     inkscape:document-units="px"
     inkscape:current-layer="layer1"
     showgrid="false"
     fit-margin-top="0"
     fit-margin-left="0"
     fit-margin-right="0"
     fit-margin-bottom="0"
     inkscape:window-width="1364"
     inkscape:window-height="841"
     inkscape:window-x="62"
     inkscape:window-y="1"
     inkscape:window-maximized="0" />
  <metadata
     id="metadata7">
    <rdf:RDF>
      <cc:Work
         rdf:about="">
        <dc:format>image/svg+xml</dc:format>
        <dc:type
           rdf:resource="http://purl.org/dc/dcmitype/StillImage" />
        <dc:title></dc:title>
      </cc:Work>
    </rdf:RDF>
  </metadata>
  <g
     inkscape:label="Livello 1"
     inkscape:groupmode="layer"
     id="layer1"
     transform="translate(-169.07143,-180.36218)"
     style="opacity:1">
    <path
       style="fill:#cdced0;stroke:none;stroke-width:1;stroke-linecap:square;stroke-linejoin:round;stroke-miterlimit:4;stroke-opacity:1;stroke-dasharray:none;stroke-dashoffset:0;fill-opacity:1"
       d="M 316.43193,16.147398 C 265.69756,118.92145 176.73635,98.182982 122.18101,101.73041 l -48.985011,64.18726 c 42.556741,80.5156 75.454171,161.0312 46.732831,241.5468 l -50.111108,13.51311 11.260923,23.08489 -37.161046,16.32834 19.143569,24.21098 -35.471907,27.02622 35.471907,28.1523 C -73.604438,877.36325 264.23723,898.56204 386.8127,930.53434 l -19.70661,56.30461 76.57427,-22.52184 20.26966,49.54809 45.60674,-47.85895 64.18726,25.90012 -15.76529,-58.5568 C 731.04391,894.93291 1027.454,864.40235 898.90317,539.49879 l 35.47191,-26.74469 -34.90886,-27.02622 18.86205,-24.77403 -36.31648,-16.89138 10.41635,-23.08489 -49.82958,-12.95006 c -27.469,-71.22078 -3.13432,-153.9535 45.60674,-242.10985 L 840.34637,101.44889 C 742.2392,99.497073 691.04553,104.78256 645.81393,16.147397 557.71334,139.5128 405.11369,138.93979 316.43193,16.147398 z"
       id="path2997"
       inkscape:connector-curvature="0"
       transform="translate(169.07143,180.36218)"
       sodipodi:nodetypes="cccccccccccccccccccccccccccc" />
    <path
       sodipodi:nodetypes="cccccccccccccccccccccccccccc"
       inkscape:connector-curvature="0"
       id="path3767"
       d="M 486.58024,239.50824 C 456.59408,312.7665 349.60389,307.1679 303.24612,309.48462 l -31.3038,40.9364 c 59.44994,105.78261 62.76405,183.69586 35.53909,260.01658 l -33.16749,8.82773 8.28542,19.49336 -30.44734,14.68136 13.36858,20.56078 -28.04994,20.84055 24.86487,18.72288 C 132.79022,1033.5591 396.69249,1049.3657 588.32993,1094.3114 l -13.10602,38.2421 51.88178,-16.1728 14.03786,36.217 31.28661,-34.2177 34.16813,14.9956 -11.36072,-36.7937 c 239.49662,-48.8023 465.49693,-74.4088 343.64363,-382.38476 l 24.3335,-18.59473 -28.3042,-22.23987 13.938,-19.54198 -31.0461,-14.88524 8.7476,-18.7854 -34.84641,-9.17861 C 959.91525,496.36649 979.19295,456.59957 1027.6146,349.94487 l -30.16321,-40.84028 c -71.60001,-2.97623 -152.37329,-2.47048 -185.11349,-69.59635 -83.51052,102.25104 -241.69624,103.50226 -325.75766,0 z"
       style="fill:#000000;stroke:none;stroke-width:0.94789975999999998;stroke-linecap:square;stroke-linejoin:round;stroke-miterlimit:4;stroke-opacity:1;stroke-dasharray:none;stroke-dashoffset:0" />
    <path
       style="fill:#ffffff;stroke:none;stroke-width:1;stroke-linecap:square;stroke-linejoin:round;stroke-miterlimit:4;stroke-opacity:1;stroke-dasharray:none;stroke-dashoffset:0"
       d="m 324.08087,122.62519 c -23.35574,27.3219 -77.24721,43.80855 -166.41991,47.77605 21.11354,70.15935 56.60877,128.43817 31.8507,236.49145 l 266.74962,1.59254 -0.79627,-232.51011 C 414.14006,171.36387 371.7118,160.8683 324.08087,122.62519 z"
       id="path3769"
       inkscape:connector-curvature="0"
       transform="translate(169.07143,180.36218)"
       sodipodi:nodetypes="cccccc" />
    <path
       style="fill:#01a54f;stroke:none;stroke-width:1;stroke-linecap:square;stroke-linejoin:round;stroke-miterlimit:4;stroke-opacity:1;stroke-dasharray:none;stroke-dashoffset:0;fill-opacity:1"
       d="m 179.16019,437.15086 c -9.14985,34.81539 -27.69576,68.58676 -42.99845,102.7185 l 697.53033,1.59254 C 818.07029,506.79009 800.52641,472.50271 788.30482,437.15086 z"
       id="path3771"
       inkscape:connector-curvature="0"
       transform="translate(169.07143,180.36218)"
       sodipodi:nodetypes="ccccc" />
    <path
       style="fill:#01a54f;stroke:none;stroke-width:1;stroke-linecap:square;stroke-linejoin:round;stroke-miterlimit:4;stroke-opacity:1;stroke-dasharray:none;stroke-dashoffset:0;fill-opacity:1"
       d="m 124.4332,569.05871 c -54.727998,133.28225 -14.3345,204.48522 73.196,244.92508 l 0.56304,-244.36203 z"
       id="path3773"
       inkscape:connector-curvature="0"
       transform="translate(169.07143,180.36218)"
       sodipodi:nodetypes="cccc" />
    <path
       style="fill:#01a54f;stroke:none;stroke-width:1;stroke-linecap:square;stroke-linejoin:round;stroke-miterlimit:4;stroke-opacity:1;stroke-dasharray:none;stroke-dashoffset:0;fill-opacity:1"
       d="m 318.68412,568.49567 0,284.3383 97.40698,21.9588 7.3196,-24.21098 c -21.61333,-10.80667 -46.10062,-28.35021 -60.80898,-50.11111 -15.98798,-23.65409 -26.30415,-53.09404 -25.90012,-81.64169 0.42754,-30.20912 10.04889,-62.75696 29.84144,-85.58302 27.55103,-31.77366 70.0094,-56.75522 112.04618,-57.99375 39.21975,-1.15553 80.57717,19.35573 107.54182,47.85892 23.59534,24.94163 35.74322,61.95751 36.598,96.28089 0.71222,28.59895 -9.99749,58.24749 -26.46317,81.6417 -16.78851,23.85288 -45.91301,44.64646 -69.25468,53.48938 l 7.3196,24.77403 102.4744,-23.64794 -0.56304,-286.59049 z"
       id="path3775"
       inkscape:connector-curvature="0"
       transform="translate(169.07143,180.36218)"
       sodipodi:nodetypes="ccccaaaaaaaccccc" />
    <path
       style="fill:#ffffff;stroke:none;stroke-width:1;stroke-linecap:square;stroke-linejoin:round;stroke-miterlimit:4;stroke-opacity:1;stroke-dasharray:none;stroke-dashoffset:0"
       d="M 550.09609,605.09367 C 524.07247,588.9335 497.10317,584.1215 469.58049,585.9501 l -9.00874,27.58926 47.85892,27.02621 36.03495,0.56305 z"
       id="path3777"
       inkscape:connector-curvature="0"
       transform="translate(169.07143,180.36218)"
       sodipodi:nodetypes="cccccc" />
    <path
       style="fill:#ffffff;stroke:none;stroke-width:1;stroke-linecap:square;stroke-linejoin:round;stroke-miterlimit:4;stroke-opacity:1;stroke-dasharray:none;stroke-dashoffset:0"
       d="m 446.49559,626.48942 -33.21972,13.51311 -2.81523,72.0699 26.46317,18.58053 60.80898,-38.28714 -1.68913,-37.16105 z"
       id="path3779"
       inkscape:connector-curvature="0"
       transform="translate(169.07143,180.36218)" />
    <path
       style="fill:#ffffff;stroke:none;stroke-width:1;stroke-linecap:square;stroke-linejoin:round;stroke-miterlimit:4;stroke-opacity:1;stroke-dasharray:none;stroke-dashoffset:0"
       d="m 377.24092,633.24597 c -23.08433,29.05563 -31.31173,60.89694 -30.40449,94.451 l 31.53058,3.51903 12.95006,-14.07615 2.25219,-73.75905 z"
       id="path3781"
       inkscape:connector-curvature="0"
       transform="translate(169.07143,180.36218)"
       sodipodi:nodetypes="cccccc" />
    <path
       style="fill:#ffffff;stroke:none;stroke-width:1;stroke-linecap:square;stroke-linejoin:round;stroke-miterlimit:4;stroke-opacity:1;stroke-dasharray:none;stroke-dashoffset:0"
       d="m 349.65166,746.9813 24.77403,2.81523 25.90012,39.41323 -7.88265,29.84144 c -22.52184,-19.51893 -36.78568,-43.54223 -42.7915,-72.0699 z"
       id="path3783"
       inkscape:connector-curvature="0"
       transform="translate(169.07143,180.36218)"
       sodipodi:nodetypes="ccccc" />
    <path
       style="fill:#ffffff;stroke:none;stroke-width:1;stroke-linecap:square;stroke-linejoin:round;stroke-miterlimit:4;stroke-opacity:1;stroke-dasharray:none;stroke-dashoffset:0"
       d="m 418.34329,793.15108 -9.57179,38.85018 c 28.36563,17.14709 58.90664,24.14241 91.77652,20.26967 l 0,-24.21099 -62.49812,-38.28714 z"
       id="path3785"
       inkscape:connector-curvature="0"
       transform="translate(169.07143,180.36218)"
       sodipodi:nodetypes="cccccc" />
    <path
       style="fill:#ffffff;stroke:none;stroke-width:1;stroke-linecap:square;stroke-linejoin:round;stroke-miterlimit:4;stroke-opacity:1;stroke-dasharray:none;stroke-dashoffset:0"
       d="m 447.62169,745.8552 1.12609,28.15231 61.93507,37.16105 28.15231,-12.95006 -0.56304,-75.44819 -27.58927,-15.76529 z"
       id="path3787"
       inkscape:connector-curvature="0"
       transform="translate(169.07143,180.36218)" />
    <path
       style="fill:#ffffff;stroke:none"
       d="m 583.87885,700.81151 -26.46316,19.70662 1.12609,77.13732 19.33677,9.7367 c 21.7202,-28.2223 40.40048,-59.5048 35.2787,-102.63932 z"
       id="path3789"
       inkscape:connector-curvature="0"
       transform="translate(169.07143,180.36218)"
       sodipodi:nodetypes="cccccc" />
    <path
       style="fill:#ffffff;stroke:none;stroke-width:1;stroke-linecap:square;stroke-linejoin:round;stroke-miterlimit:4;stroke-opacity:1;stroke-dasharray:none;stroke-dashoffset:0"
       d="m 568.11356,618.04373 -5.63046,31.53058 23.08489,32.09363 24.21099,3.94133 c -5.83875,-23.19266 -17.85049,-45.8709 -41.66542,-67.56554 z"
       id="path3791"
       inkscape:connector-curvature="0"
       transform="translate(169.07143,180.36218)"
       sodipodi:nodetypes="ccccc" />
    <path
       style="fill:#01a54f;stroke:none;stroke-width:1;stroke-linecap:square;stroke-linejoin:round;stroke-miterlimit:4;stroke-opacity:1;stroke-dasharray:none;stroke-dashoffset:0;fill-opacity:1"
       d="m 757.86011,568.49567 0,252.24467 c 107.90981,-43.19194 139.63624,-125.913 88.39825,-251.68163 z"
       id="path3793"
       inkscape:connector-curvature="0"
       transform="translate(169.07143,180.36218)"
       sodipodi:nodetypes="cccc" />
    <path
       style="fill:#01a54f;stroke:none;stroke-width:1;stroke-linecap:square;stroke-linejoin:round;stroke-miterlimit:4;stroke-opacity:1;stroke-dasharray:none;stroke-dashoffset:0;fill-opacity:1"
       d="m 730.8339,161.97635 0,246.05117 49.54806,0 c -22.09594,-94.91986 4.76773,-166.10174 30.96754,-237.60548 -27.01109,-1.08968 -54.0226,-2.17511 -80.5156,-8.44569 z"
       id="path3795"
       inkscape:connector-curvature="0"
       transform="translate(169.07143,180.36218)"
       sodipodi:nodetypes="ccccc" />
    <path
       style="fill:#01a54f;stroke:none;stroke-width:1;stroke-linecap:square;stroke-linejoin:round;stroke-miterlimit:4;stroke-opacity:1;stroke-dasharray:none;stroke-dashoffset:0;fill-opacity:1"
       d="m 644.68784,122.00007 c -7.71412,6.66076 -15.22593,14.33312 -23.64794,17.45443 l 0,269.69911 48.98501,0 0,-266.32083 c -9.96903,-5.92868 -17.54261,-13.45432 -25.33707,-20.83271 z"
       id="path3797"
       inkscape:connector-curvature="0"
       transform="translate(169.07143,180.36218)"
       sodipodi:nodetypes="cccccc" />
    <path
       style="fill:#01a54f;stroke:none;stroke-width:1;stroke-linecap:square;stroke-linejoin:round;stroke-miterlimit:4;stroke-opacity:1;stroke-dasharray:none;stroke-dashoffset:0;fill-opacity:1"
       d="m 561.35701,167.04376 c -14.64629,4.92121 -30.81037,7.24048 -47.29588,9.00874 l 0,233.10111 47.29588,0 z"
       id="path3799"
       inkscape:connector-curvature="0"
       transform="translate(169.07143,180.36218)"
       sodipodi:nodetypes="ccccc" />
    <path
       sodipodi:type="arc"
       style="fill:#000000;stroke:none;stroke-width:1;stroke-linecap:square;stroke-linejoin:round;stroke-miterlimit:4;stroke-opacity:1;stroke-dasharray:none;stroke-dashoffset:0"
       id="path3801"
       sodipodi:cx="242.10985"
       sodipodi:cy="207.30156"
       sodipodi:rx="15.765291"
       sodipodi:ry="15.765291"
       d="m 257.87514,207.30156 a 15.765291,15.765291 0 1 1 -31.53058,0 15.765291,15.765291 0 1 1 31.53058,0 z"
       transform="translate(186.24434,179.79913)" />
    <path
       sodipodi:type="arc"
       style="fill:#ffffff;stroke:none;stroke-width:1;stroke-linecap:square;stroke-linejoin:round;stroke-miterlimit:4;stroke-opacity:1;stroke-dasharray:none;stroke-dashoffset:0"
       id="path3803"
       sodipodi:cx="261.25342"
       sodipodi:cy="208.99071"
       sodipodi:rx="7.8826461"
       sodipodi:ry="7.8826461"
       d="m 269.13606,208.99071 a 7.8826461,7.8826461 0 1 1 -15.76529,0 7.8826461,7.8826461 0 1 1 15.76529,0 z"
       transform="translate(166.81925,177.82847)" />
    <path
       transform="translate(163.72249,193.59376)"
       d="m 257.87514,207.30156 a 15.765291,15.765291 0 1 1 -31.53058,0 15.765291,15.765291 0 1 1 31.53058,0 z"
       sodipodi:ry="15.765291"
       sodipodi:rx="15.765291"
       sodipodi:cy="207.30156"
       sodipodi:cx="242.10985"
       id="path3805"
       style="fill:#000000;stroke:none;stroke-width:1;stroke-linecap:square;stroke-linejoin:round;stroke-miterlimit:4;stroke-opacity:1;stroke-dasharray:none;stroke-dashoffset:0"
       sodipodi:type="arc" />
    <path
       transform="translate(144.2974,191.6231)"
       d="m 269.13606,208.99071 a 7.8826461,7.8826461 0 1 1 -15.76529,0 7.8826461,7.8826461 0 1 1 15.76529,0 z"
       sodipodi:ry="7.8826461"
       sodipodi:rx="7.8826461"
       sodipodi:cy="208.99071"
       sodipodi:cx="261.25342"
       id="path3807"
       style="fill:#ffffff;stroke:none;stroke-width:1;stroke-linecap:square;stroke-linejoin:round;stroke-miterlimit:4;stroke-opacity:1;stroke-dasharray:none;stroke-dashoffset:0"
       sodipodi:type="arc" />
    <path
       sodipodi:type="arc"
       style="fill:#000000;stroke:none;stroke-width:1;stroke-linecap:square;stroke-linejoin:round;stroke-miterlimit:4;stroke-opacity:1;stroke-dasharray:none;stroke-dashoffset:0"
       id="path3809"
       sodipodi:cx="242.10985"
       sodipodi:cy="207.30156"
       sodipodi:rx="15.765291"
       sodipodi:ry="15.765291"
       d="m 257.87514,207.30156 a 15.765291,15.765291 0 1 1 -31.53058,0 15.765291,15.765291 0 1 1 31.53058,0 z"
       transform="translate(159.21812,222.30911)" />
    <path
       sodipodi:type="arc"
       style="fill:#ffffff;stroke:none;stroke-width:1;stroke-linecap:square;stroke-linejoin:round;stroke-miterlimit:4;stroke-opacity:1;stroke-dasharray:none;stroke-dashoffset:0"
       id="path3811"
       sodipodi:cx="261.25342"
       sodipodi:cy="208.99071"
       sodipodi:rx="7.8826461"
       sodipodi:ry="7.8826461"
       d="m 269.13606,208.99071 a 7.8826461,7.8826461 0 1 1 -15.76529,0 7.8826461,7.8826461 0 1 1 15.76529,0 z"
       transform="translate(139.79303,220.33845)" />
    <path
       transform="translate(182.86606,231.31785)"
       d="m 257.87514,207.30156 a 15.765291,15.765291 0 1 1 -31.53058,0 15.765291,15.765291 0 1 1 31.53058,0 z"
       sodipodi:ry="15.765291"
       sodipodi:rx="15.765291"
       sodipodi:cy="207.30156"
       sodipodi:cx="242.10985"
       id="path3813"
       style="fill:#000000;stroke:none;stroke-width:1;stroke-linecap:square;stroke-linejoin:round;stroke-miterlimit:4;stroke-opacity:1;stroke-dasharray:none;stroke-dashoffset:0"
       sodipodi:type="arc" />
    <path
       transform="translate(163.44097,229.34719)"
       d="m 269.13606,208.99071 a 7.8826461,7.8826461 0 1 1 -15.76529,0 7.8826461,7.8826461 0 1 1 15.76529,0 z"
       sodipodi:ry="7.8826461"
       sodipodi:rx="7.8826461"
       sodipodi:cy="208.99071"
       sodipodi:cx="261.25342"
       id="path3815"
       style="fill:#ffffff;stroke:none;stroke-width:1;stroke-linecap:square;stroke-linejoin:round;stroke-miterlimit:4;stroke-opacity:1;stroke-dasharray:none;stroke-dashoffset:0"
       sodipodi:type="arc" />
    <path
       sodipodi:type="arc"
       style="fill:#000000;stroke:none;stroke-width:1;stroke-linecap:square;stroke-linejoin:round;stroke-miterlimit:4;stroke-opacity:1;stroke-dasharray:none;stroke-dashoffset:0"
       id="path3817"
       sodipodi:cx="242.10985"
       sodipodi:cy="207.30156"
       sodipodi:rx="15.765291"
       sodipodi:ry="15.765291"
       d="m 257.87514,207.30156 a 15.765291,15.765291 0 1 1 -31.53058,0 15.765291,15.765291 0 1 1 31.53058,0 z"
       transform="translate(203.98029,216.39713)" />
    <path
       sodipodi:type="arc"
       style="fill:#ffffff;stroke:none;stroke-width:1;stroke-linecap:square;stroke-linejoin:round;stroke-miterlimit:4;stroke-opacity:1;stroke-dasharray:none;stroke-dashoffset:0"
       id="path3819"
       sodipodi:cx="261.25342"
       sodipodi:cy="208.99071"
       sodipodi:rx="7.8826461"
       sodipodi:ry="7.8826461"
       d="m 269.13606,208.99071 a 7.8826461,7.8826461 0 1 1 -15.76529,0 7.8826461,7.8826461 0 1 1 15.76529,0 z"
       transform="translate(184.5552,214.42647)" />
    <path
       transform="translate(201.72811,192.74919)"
       d="m 257.87514,207.30156 a 15.765291,15.765291 0 1 1 -31.53058,0 15.765291,15.765291 0 1 1 31.53058,0 z"
       sodipodi:ry="15.765291"
       sodipodi:rx="15.765291"
       sodipodi:cy="207.30156"
       sodipodi:cx="242.10985"
       id="path3821"
       style="fill:#000000;stroke:none;stroke-width:1;stroke-linecap:square;stroke-linejoin:round;stroke-miterlimit:4;stroke-opacity:1;stroke-dasharray:none;stroke-dashoffset:0"
       sodipodi:type="arc" />
    <path
       transform="translate(182.30302,190.77853)"
       d="m 269.13606,208.99071 a 7.8826461,7.8826461 0 1 1 -15.76529,0 7.8826461,7.8826461 0 1 1 15.76529,0 z"
       sodipodi:ry="7.8826461"
       sodipodi:rx="7.8826461"
       sodipodi:cy="208.99071"
       sodipodi:cx="261.25342"
       id="path3823"
       style="fill:#ffffff;stroke:none;stroke-width:1;stroke-linecap:square;stroke-linejoin:round;stroke-miterlimit:4;stroke-opacity:1;stroke-dasharray:none;stroke-dashoffset:0"
       sodipodi:type="arc" />
    <path
       sodipodi:type="arc"
       style="fill:#000000;stroke:none;stroke-width:1;stroke-linecap:square;stroke-linejoin:round;stroke-miterlimit:4;stroke-opacity:1;stroke-dasharray:none;stroke-dashoffset:0"
       id="path3825"
       sodipodi:cx="242.10985"
       sodipodi:cy="207.30156"
       sodipodi:rx="15.765291"
       sodipodi:ry="15.765291"
       d="m 257.87514,207.30156 a 15.765291,15.765291 0 1 1 -31.53058,0 15.765291,15.765291 0 1 1 31.53058,0 z"
       transform="translate(323.90912,184.02197)" />
    <path
       sodipodi:type="arc"
       style="fill:#ffffff;stroke:none;stroke-width:1;stroke-linecap:square;stroke-linejoin:round;stroke-miterlimit:4;stroke-opacity:1;stroke-dasharray:none;stroke-dashoffset:0"
       id="path3827"
       sodipodi:cx="261.25342"
       sodipodi:cy="208.99071"
       sodipodi:rx="7.8826461"
       sodipodi:ry="7.8826461"
       d="m 269.13606,208.99071 a 7.8826461,7.8826461 0 1 1 -15.76529,0 7.8826461,7.8826461 0 1 1 15.76529,0 z"
       transform="translate(304.48403,182.05131)" />
    <path
       transform="translate(308.14383,196.40899)"
       d="m 257.87514,207.30156 a 15.765291,15.765291 0 1 1 -31.53058,0 15.765291,15.765291 0 1 1 31.53058,0 z"
       sodipodi:ry="15.765291"
       sodipodi:rx="15.765291"
       sodipodi:cy="207.30156"
       sodipodi:cx="242.10985"
       id="path3829"
       style="fill:#000000;stroke:none;stroke-width:1;stroke-linecap:square;stroke-linejoin:round;stroke-miterlimit:4;stroke-opacity:1;stroke-dasharray:none;stroke-dashoffset:0"
       sodipodi:type="arc" />
    <path
       transform="translate(288.71874,194.43833)"
       d="m 269.13606,208.99071 a 7.8826461,7.8826461 0 1 1 -15.76529,0 7.8826461,7.8826461 0 1 1 15.76529,0 z"
       sodipodi:ry="7.8826461"
       sodipodi:rx="7.8826461"
       sodipodi:cy="208.99071"
       sodipodi:cx="261.25342"
       id="path3831"
       style="fill:#ffffff;stroke:none;stroke-width:1;stroke-linecap:square;stroke-linejoin:round;stroke-miterlimit:4;stroke-opacity:1;stroke-dasharray:none;stroke-dashoffset:0"
       sodipodi:type="arc" />
    <path
       sodipodi:type="arc"
       style="fill:#000000;stroke:none;stroke-width:1;stroke-linecap:square;stroke-linejoin:round;stroke-miterlimit:4;stroke-opacity:1;stroke-dasharray:none;stroke-dashoffset:0"
       id="path3833"
       sodipodi:cx="242.10985"
       sodipodi:cy="207.30156"
       sodipodi:rx="15.765291"
       sodipodi:ry="15.765291"
       d="m 257.87514,207.30156 a 15.765291,15.765291 0 1 1 -31.53058,0 15.765291,15.765291 0 1 1 31.53058,0 z"
       transform="translate(305.61012,220.33845)" />
    <path
       sodipodi:type="arc"
       style="fill:#ffffff;stroke:none;stroke-width:1;stroke-linecap:square;stroke-linejoin:round;stroke-miterlimit:4;stroke-opacity:1;stroke-dasharray:none;stroke-dashoffset:0"
       id="path3835"
       sodipodi:cx="261.25342"
       sodipodi:cy="208.99071"
       sodipodi:rx="7.8826461"
       sodipodi:ry="7.8826461"
       d="m 269.13606,208.99071 a 7.8826461,7.8826461 0 1 1 -15.76529,0 7.8826461,7.8826461 0 1 1 15.76529,0 z"
       transform="translate(286.18503,218.36779)" />
    <path
       transform="translate(327.00587,235.5407)"
       d="m 257.87514,207.30156 a 15.765291,15.765291 0 1 1 -31.53058,0 15.765291,15.765291 0 1 1 31.53058,0 z"
       sodipodi:ry="15.765291"
       sodipodi:rx="15.765291"
       sodipodi:cy="207.30156"
       sodipodi:cx="242.10985"
       id="path3837"
       style="fill:#000000;stroke:none;stroke-width:1;stroke-linecap:square;stroke-linejoin:round;stroke-miterlimit:4;stroke-opacity:1;stroke-dasharray:none;stroke-dashoffset:0"
       sodipodi:type="arc" />
    <path
       transform="translate(307.58078,233.57004)"
       d="m 269.13606,208.99071 a 7.8826461,7.8826461 0 1 1 -15.76529,0 7.8826461,7.8826461 0 1 1 15.76529,0 z"
       sodipodi:ry="7.8826461"
       sodipodi:rx="7.8826461"
       sodipodi:cy="208.99071"
       sodipodi:cx="261.25342"
       id="path3839"
       style="fill:#ffffff;stroke:none;stroke-width:1;stroke-linecap:square;stroke-linejoin:round;stroke-miterlimit:4;stroke-opacity:1;stroke-dasharray:none;stroke-dashoffset:0"
       sodipodi:type="arc" />
    <path
       sodipodi:type="arc"
       style="fill:#000000;stroke:none;stroke-width:1;stroke-linecap:square;stroke-linejoin:round;stroke-miterlimit:4;stroke-opacity:1;stroke-dasharray:none;stroke-dashoffset:0"
       id="path3841"
       sodipodi:cx="242.10985"
       sodipodi:cy="207.30156"
       sodipodi:rx="15.765291"
       sodipodi:ry="15.765291"
       d="m 257.87514,207.30156 a 15.765291,15.765291 0 1 1 -31.53058,0 15.765291,15.765291 0 1 1 31.53058,0 z"
       transform="translate(350.65381,226.81348)" />
    <path
       sodipodi:type="arc"
       style="fill:#ffffff;stroke:none;stroke-width:1;stroke-linecap:square;stroke-linejoin:round;stroke-miterlimit:4;stroke-opacity:1;stroke-dasharray:none;stroke-dashoffset:0"
       id="path3843"
       sodipodi:cx="261.25342"
       sodipodi:cy="208.99071"
       sodipodi:rx="7.8826461"
       sodipodi:ry="7.8826461"
       d="m 269.13606,208.99071 a 7.8826461,7.8826461 0 1 1 -15.76529,0 7.8826461,7.8826461 0 1 1 15.76529,0 z"
       transform="translate(331.22872,224.84282)" />
    <path
       transform="translate(346.71249,197.25356)"
       d="m 257.87514,207.30156 a 15.765291,15.765291 0 1 1 -31.53058,0 15.765291,15.765291 0 1 1 31.53058,0 z"
       sodipodi:ry="15.765291"
       sodipodi:rx="15.765291"
       sodipodi:cy="207.30156"
       sodipodi:cx="242.10985"
       id="path3845"
       style="fill:#000000;stroke:none;stroke-width:1;stroke-linecap:square;stroke-linejoin:round;stroke-miterlimit:4;stroke-opacity:1;stroke-dasharray:none;stroke-dashoffset:0"
       sodipodi:type="arc" />
    <path
       transform="translate(327.2874,195.2829)"
       d="m 269.13606,208.99071 a 7.8826461,7.8826461 0 1 1 -15.76529,0 7.8826461,7.8826461 0 1 1 15.76529,0 z"
       sodipodi:ry="7.8826461"
       sodipodi:rx="7.8826461"
       sodipodi:cy="208.99071"
       sodipodi:cx="261.25342"
       id="path3847"
       style="fill:#ffffff;stroke:none;stroke-width:1;stroke-linecap:square;stroke-linejoin:round;stroke-miterlimit:4;stroke-opacity:1;stroke-dasharray:none;stroke-dashoffset:0"
       sodipodi:type="arc" />
    <path
       style="fill:#000000;stroke:none;stroke-width:1;stroke-linecap:square;stroke-linejoin:round;stroke-miterlimit:4;stroke-opacity:1;stroke-dasharray:none;stroke-dashoffset:0"
       d="m 299.82207,256.28658 -7.03807,16.04681 -12.38702,-14.92072 c -12.91227,-9.67268 -13.1846,3.40654 -16.04681,11.82397 l 3.6598,11.82397 -24.21099,0.56305 -0.28152,9.29026 25.05555,3.6598 2.81523,7.03807 c -43.63963,-2.83937 -37.64364,62.35346 -37.68373,107.6697 l 193.89114,0.44644 c -0.48566,-45.93877 5.83183,-113.56858 -42.60032,-104.75748 l 1.99067,-6.37014 24.6843,-3.5832 0.39813,-8.75895 -23.48989,-1.59253 3.18507,-11.14775 c -1.37381,-17.81893 -7.84031,-17.81346 -15.52722,-13.53654 l -12.74028,17.51788 -6.76827,-17.11975 -9.55521,1.1944 2.3888,24.28616 c -12.46899,-20.11635 -26.43875,-27.32614 -44.19284,-1.99067 l 2.78693,-26.27683 z"
       id="path3849"
       inkscape:connector-curvature="0"
       transform="translate(169.07143,180.36218)"
       sodipodi:nodetypes="ccccccccccccccccccccccccc" />
    <path
       style="fill:#ffffff;stroke:none;stroke-width:1;stroke-linecap:square;stroke-linejoin:round;stroke-miterlimit:4;stroke-opacity:1;stroke-dasharray:none;stroke-dashoffset:0"
       d="m 242.39137,375.65236 0.84457,31.24906 50.1111,0.28153 0.28153,-31.53059 z"
       id="path3851"
       inkscape:connector-curvature="0"
       transform="translate(169.07143,180.36218)" />
    <path
       style="fill:#ffffff;stroke:none;stroke-width:1;stroke-linecap:square;stroke-linejoin:round;stroke-miterlimit:4;stroke-opacity:1;stroke-dasharray:none;stroke-dashoffset:0"
       d="m 303.48187,375.08932 -0.56304,32.37515 50.67415,0.28152 1.12609,-32.09363 z"
       id="path3853"
       inkscape:connector-curvature="0"
       transform="translate(169.07143,180.36218)" />
    <path
       style="fill:#ffffff;stroke:none;stroke-width:1;stroke-linecap:square;stroke-linejoin:round;stroke-miterlimit:4;stroke-opacity:1;stroke-dasharray:none;stroke-dashoffset:0"
       d="m 363.72781,375.65236 -0.98533,31.95287 55.31928,0 0.28153,-31.81211 z"
       id="path3855"
       inkscape:connector-curvature="0"
       transform="translate(169.07143,180.36218)" />
    <path
       style="fill:#ffffff;stroke:none;stroke-width:1;stroke-linecap:square;stroke-linejoin:round;stroke-miterlimit:4;stroke-opacity:1;stroke-dasharray:none;stroke-dashoffset:0"
       d="m 363.58705,371.00723 54.47471,0.42229 c -1.37035,-31.62847 -3.39516,-57.57028 -24.4925,-58.41604 -21.7444,-0.8717 -29.21554,33.74947 -29.98221,57.99375 z"
       id="path3857"
       inkscape:connector-curvature="0"
       transform="translate(169.07143,180.36218)"
       sodipodi:nodetypes="ccac" />
    <path
       sodipodi:nodetypes="ccsc"
       inkscape:connector-curvature="0"
       id="path3859"
       d="m 411.32204,551.93246 50.89151,0.12369 c -1.37035,-31.62847 -6.71289,-61.08863 -25.97672,-60.93267 -21.90432,0.17734 -24.14812,36.5647 -24.91479,60.80898 z"
       style="fill:#ffffff;stroke:none;stroke-width:1;stroke-linecap:square;stroke-linejoin:round;stroke-miterlimit:4;stroke-opacity:1;stroke-dasharray:none;stroke-dashoffset:0" />
    <path
       style="fill:#ffffff;stroke:none;stroke-width:1;stroke-linecap:square;stroke-linejoin:round;stroke-miterlimit:4;stroke-opacity:1;stroke-dasharray:none;stroke-dashoffset:0"
       d="m 472.13102,552.21398 51.73608,0.12369 c 0.79264,-13.64776 0.78618,-95.04469 -27.10281,-95.27848 -28.80348,2.59132 -29.49706,65.28005 -24.63327,95.15479 z"
       id="path3861"
       inkscape:connector-curvature="0"
       sodipodi:nodetypes="cccc" />
    <path
       style="fill:#ffffff;fill-opacity:1;fill-rule:nonzero;stroke:none;stroke-width:1;stroke-linecap:square;stroke-linejoin:round;stroke-miterlimit:4;stroke-opacity:1;stroke-dasharray:none;stroke-dashoffset:0"
       d="m 225.21846,456.16796 c -14.74375,31.67718 -15.14352,53.02669 7.60112,57.71223 l 29.84145,0.56305 0,-57.99376 -15.76529,0 0,43.63608 -7.88265,0 c -17.57899,-4.83035 -2.87725,-26.75049 3.37828,-44.19912 z"
       id="path3863"
       inkscape:connector-curvature="0"
       transform="translate(169.07143,180.36218)"
       sodipodi:nodetypes="ccccccccc" />
    <path
       style="fill:#ffffff;fill-opacity:1;fill-rule:nonzero;stroke:none;stroke-width:1;stroke-linecap:square;stroke-linejoin:round;stroke-miterlimit:4;stroke-opacity:1;stroke-dasharray:none;stroke-dashoffset:0"
       d="m 271.10672,500.64861 0,13.79463 12.95006,0 0,-13.79463 z"
       id="path3865"
       inkscape:connector-curvature="0"
       transform="translate(169.07143,180.36218)" />
    <path
       style="fill:#ffffff;fill-opacity:1;fill-rule:nonzero;stroke:none;stroke-width:1;stroke-linecap:square;stroke-linejoin:round;stroke-miterlimit:4;stroke-opacity:1;stroke-dasharray:none;stroke-dashoffset:0"
       d="m 321.78087,455.88644 -18.299,0 c -19.93115,3.0583 -13.39446,23.32577 -7.556,28.1994 l 13.88928,13.88929 c 1.09301,1.5576 0.7047,2.40199 -0.73431,2.74047 l -19.11207,0 3.57402,13.33844 21.48153,0 c 18.81779,-4.13035 12.06841,-20.46931 6.71348,-25.05507 L 307.14167,472.4963 c -0.97383,-1.13342 -1.35833,-3.18346 1.40762,-3.37828 l 17.17291,0 z"
       id="path3867"
       inkscape:connector-curvature="0"
       transform="translate(169.07143,180.36218)"
       sodipodi:nodetypes="ccccccccccccc" />
    <path
       inkscape:connector-curvature="0"
       id="path3869"
       d="m 500.89355,681.01079 0,13.79463 12.95006,0 0,-13.79463 z"
       style="fill:#ffffff;fill-opacity:1;fill-rule:nonzero;stroke:none;stroke-width:1;stroke-linecap:square;stroke-linejoin:round;stroke-miterlimit:4;stroke-opacity:1;stroke-dasharray:none;stroke-dashoffset:0" />
    <path
       sodipodi:nodetypes="ccccccccccccc"
       inkscape:connector-curvature="0"
       id="path3871"
       d="m 575.85386,636.24862 -18.299,0 c -19.93115,3.0583 -13.39446,23.32577 -7.556,28.1994 l 13.88928,13.88929 c 1.09301,1.5576 0.7047,2.40199 -0.73431,2.74047 l -19.11207,0 3.57402,13.33844 21.48153,0 c 18.81779,-4.13035 12.06841,-20.46931 6.71348,-25.05507 l -14.59613,-16.50267 c -0.97383,-1.13342 -1.35833,-3.18346 1.40762,-3.37828 l 17.17291,0 z"
       style="fill:#ffffff;fill-opacity:1;fill-rule:nonzero;stroke:none;stroke-width:1;stroke-linecap:square;stroke-linejoin:round;stroke-miterlimit:4;stroke-opacity:1;stroke-dasharray:none;stroke-dashoffset:0" />
    <path
       style="fill:#ffffff;fill-opacity:1;fill-rule:nonzero;stroke:none;stroke-width:1;stroke-linecap:square;stroke-linejoin:round;stroke-miterlimit:4;stroke-opacity:1;stroke-dasharray:none;stroke-dashoffset:0"
       d="m 668.41996,636.24862 -18.299,0 c -19.93115,3.0583 -13.39446,23.32577 -7.556,28.1994 l 13.88928,13.88929 c 1.09301,1.5576 0.7047,2.40199 -0.73431,2.74047 l -19.11207,0 3.57402,13.33844 21.48153,0 c 18.81779,-4.13035 12.06841,-20.46931 6.71348,-25.05507 l -14.59613,-16.50267 c -0.97383,-1.13342 -1.35833,-3.18346 1.40762,-3.37828 l 17.17291,0 z"
       id="path3873"
       inkscape:connector-curvature="0"
       sodipodi:nodetypes="ccccccccccccc" />
    <path
       sodipodi:nodetypes="ccccccccccccc"
       inkscape:connector-curvature="0"
       id="path3875"
       d="m 708.03427,636.24862 -18.299,0 c -19.93115,3.0583 -13.39446,23.32577 -7.556,28.1994 l 13.88928,13.88929 c 1.09301,1.5576 0.7047,2.40199 -0.73431,2.74047 l -19.11207,0 3.57402,13.33844 21.48153,0 c 18.81779,-4.13035 12.06841,-20.46931 6.71348,-25.05507 l -14.59613,-16.50267 c -0.97383,-1.13342 -1.35833,-3.18346 1.40762,-3.37828 l 17.17291,0 z"
       style="fill:#ffffff;fill-opacity:1;fill-rule:nonzero;stroke:none;stroke-width:1;stroke-linecap:square;stroke-linejoin:round;stroke-miterlimit:4;stroke-opacity:1;stroke-dasharray:none;stroke-dashoffset:0" />
    <path
       sodipodi:nodetypes="ccccccccc"
       inkscape:connector-curvature="0"
       id="path3877"
       d="m 725.36102,636.53014 c -14.74375,31.67718 -15.14352,53.02669 7.60112,57.71223 l 29.84145,0.56305 0,-57.99376 -15.76529,0 0,43.63608 -7.88265,0 c -17.57899,-4.83035 -2.87725,-26.75049 3.37828,-44.19912 z"
       style="fill:#ffffff;fill-opacity:1;fill-rule:nonzero;stroke:none;stroke-width:1;stroke-linecap:square;stroke-linejoin:round;stroke-miterlimit:4;stroke-opacity:1;stroke-dasharray:none;stroke-dashoffset:0" />
    <path
       style="fill:#ffffff;fill-opacity:1;fill-rule:nonzero;stroke:none;stroke-width:1;stroke-linecap:square;stroke-linejoin:round;stroke-miterlimit:4;stroke-opacity:1;stroke-dasharray:none;stroke-dashoffset:0"
       d="m 460.14946,455.88644 -19.42509,0.28152 c -11.33917,0.0335 -22.29466,14.43911 -25.75936,26.18165 -3.87754,13.14173 0.41081,28.10539 8.30493,40.2578 l 12.8093,-8.58646 -6.61579,-18.43976 16.89138,0 0,18.43976 14.92073,0 0,-42.7915 -14.35768,0 0,11.40168 -15.34301,0 c 2.19489,-8.77779 8.10523,-11.93784 15.34301,-13.09082 l 16.89138,0 z"
       id="path3879"
       inkscape:connector-curvature="0"
       transform="translate(169.07143,180.36218)"
       sodipodi:nodetypes="ccaccccccccccccc" />
    <path
       style="fill:#ffffff;fill-opacity:1;fill-rule:nonzero;stroke:none;stroke-width:1;stroke-linecap:square;stroke-linejoin:round;stroke-miterlimit:4;stroke-opacity:1;stroke-dasharray:none;stroke-dashoffset:0"
       d="m 619.35076,455.25301 c -10.39372,1.63559 -17.3252,6.44491 -18.72128,16.32834 l 0,11.54244 c 2.18898,24.36927 15.54296,31.53485 20.69194,31.74173 l 10.69788,0 c 5.46152,-0.30643 19.08689,-9.58912 20.19928,-31.74173 l 0,-11.54244 c -2.97927,-13.42259 -11.8476,-15.8889 -16.1172,-16.32834 z"
       id="path3881"
       inkscape:connector-curvature="0"
       transform="translate(169.07143,180.36218)"
       sodipodi:nodetypes="ccccccccc" />
    <path
       style="fill:#01a54f;fill-opacity:1;fill-rule:nonzero;stroke:none;stroke-width:1;stroke-linecap:square;stroke-linejoin:round;stroke-miterlimit:4;stroke-opacity:1;stroke-dasharray:none;stroke-dashoffset:0"
       d="m 622.44752,469.11802 8.16416,0 c 4.27952,0.89382 5.60197,3.6694 5.77123,7.17884 l 0,9.29026 c 0.007,1.60492 -4.46962,13.90163 -7.46036,14.6392 l -4.50437,0 c -3.28534,-0.51613 -8.02913,-12.9266 -8.02341,-14.6392 l 0,-9.29026 c 0.0348,-3.74488 1.89031,-6.2483 6.05275,-7.17884 z"
       id="path3883"
       inkscape:connector-curvature="0"
       transform="translate(169.07143,180.36218)"
       sodipodi:nodetypes="ccccccccc" />
    <path
       sodipodi:nodetypes="ccccccccc"
       inkscape:connector-curvature="0"
       id="path3885"
       d="m 882.77989,635.61519 c -10.39372,1.63559 -17.3252,6.44491 -18.72128,16.32834 l 0,11.54244 c 2.18898,24.36927 15.54296,31.53485 20.69194,31.74173 l 10.69788,0 c 5.46152,-0.30643 19.08689,-9.58912 20.19928,-31.74173 l 0,-11.54244 c -2.97927,-13.42259 -11.8476,-15.8889 -16.1172,-16.32834 z"
       style="fill:#ffffff;fill-opacity:1;fill-rule:nonzero;stroke:none;stroke-width:1;stroke-linecap:square;stroke-linejoin:round;stroke-miterlimit:4;stroke-opacity:1;stroke-dasharray:none;stroke-dashoffset:0" />
    <path
       sodipodi:nodetypes="ccccccccc"
       inkscape:connector-curvature="0"
       id="path3887"
       d="m 885.87665,649.4802 8.16416,0 c 4.27952,0.89382 5.60197,3.6694 5.77123,7.17884 l 0,9.29026 c 0.007,1.60492 -4.46962,13.90163 -7.46036,14.6392 l -4.50437,0 c -3.28534,-0.51613 -8.02913,-12.9266 -8.02341,-14.6392 l 0,-9.29026 c 0.0348,-3.74488 1.89031,-6.2483 6.05275,-7.17884 z"
       style="fill:#01a54f;fill-opacity:1;fill-rule:nonzero;stroke:none;stroke-width:1;stroke-linecap:square;stroke-linejoin:round;stroke-miterlimit:4;stroke-opacity:1;stroke-dasharray:none;stroke-dashoffset:0" />
    <path
       style="fill:#ffffff;fill-opacity:1;fill-rule:nonzero;stroke:none;stroke-width:1;stroke-linecap:square;stroke-linejoin:round;stroke-miterlimit:4;stroke-opacity:1;stroke-dasharray:none;stroke-dashoffset:0"
       d="m 659.60856,456.0272 0,57.85299 31.38982,0 3.51904,-13.37235 -19.70661,0 0,-44.48064 z"
       id="path3889"
       inkscape:connector-curvature="0"
       transform="translate(169.07143,180.36218)" />
  </g>
</svg>
